<?xml version="1.0" standalone="no"?>
<!DOCTYPE svg PUBLIC "-//W3C//DTD SVG 20010904//EN"
 "http://www.w3.org/TR/2001/REC-SVG-20010904/DTD/svg10.dtd">
<svg version="1.0" xmlns="http://www.w3.org/2000/svg"
 width="1080.000000pt" height="1080.000000pt" viewBox="0 0 1080.000000 1080.000000"
 preserveAspectRatio="xMidYMid meet">

<g transform="translate(0.000000,1080.000000) scale(0.100000,-0.100000)"
fill="#000000" stroke="none">
<path d="M3341 10013 c-78 -2 -120 -8 -135 -18 -12 -9 -44 -15 -81 -15 -37 -1
-67 -6 -79 -15 -11 -8 -38 -15 -60 -15 -23 0 -50 -7 -60 -15 -11 -8 -36 -15
-57 -15 -20 0 -42 -7 -49 -15 -7 -8 -28 -15 -46 -15 -24 0 -34 -5 -34 -15 0
-11 -11 -15 -39 -15 -22 0 -44 -6 -51 -15 -7 -8 -23 -15 -35 -15 -13 0 -25 -7
-29 -15 -3 -8 -16 -15 -29 -15 -14 0 -30 -7 -37 -15 -7 -8 -20 -15 -30 -15
-10 0 -23 -7 -30 -15 -7 -8 -21 -15 -31 -15 -10 0 -22 -6 -26 -13 -4 -8 -39
-29 -78 -48 -38 -18 -73 -39 -77 -45 -4 -6 -19 -15 -33 -18 -14 -4 -25 -11
-25 -16 0 -6 -6 -10 -14 -10 -8 0 -16 -7 -20 -15 -3 -8 -23 -23 -46 -32 -22
-10 -43 -25 -46 -33 -2 -8 -30 -33 -61 -55 -30 -22 -81 -63 -112 -92 -31 -29
-59 -52 -63 -53 -5 0 -8 -5 -8 -11 0 -6 -30 -41 -67 -78 -38 -36 -81 -86 -97
-109 -17 -24 -40 -52 -53 -62 -13 -10 -23 -21 -23 -24 0 -4 -5 -12 -10 -19
-40 -48 -50 -61 -50 -72 0 -6 -13 -25 -30 -41 -16 -16 -30 -35 -30 -42 0 -7
-7 -15 -15 -18 -8 -4 -15 -14 -15 -24 0 -11 -5 -22 -11 -25 -5 -4 -15 -17 -20
-28 -15 -34 -36 -68 -48 -80 -6 -6 -11 -19 -11 -28 0 -10 -6 -24 -14 -31 -7
-8 -17 -24 -20 -36 -4 -12 -12 -22 -17 -22 -5 0 -9 -13 -9 -29 0 -17 -4 -33
-10 -36 -12 -8 -46 -84 -55 -124 -4 -17 -11 -31 -16 -31 -5 0 -9 -13 -9 -28 0
-16 -7 -37 -15 -48 -8 -10 -15 -26 -15 -34 0 -8 -6 -27 -14 -42 -8 -14 -17
-49 -21 -77 -4 -28 -11 -53 -15 -56 -4 -3 -11 -33 -15 -67 -4 -34 -11 -69 -16
-78 -5 -8 -13 -49 -19 -90 -6 -41 -15 -106 -21 -145 -13 -93 -12 -459 1 -560
16 -125 37 -248 44 -266 4 -10 11 -39 16 -65 5 -33 8 26 9 181 1 170 5 246 16
288 8 32 15 78 15 103 0 25 5 54 11 66 6 11 15 48 19 81 5 34 14 63 20 65 5 2
10 23 10 46 0 23 7 51 15 62 8 10 15 27 15 37 0 17 29 91 50 129 6 10 10 23
10 30 0 7 14 40 30 73 16 33 30 65 30 71 0 6 7 17 15 24 8 7 15 21 15 31 0 9
6 24 13 31 7 7 16 20 20 28 4 8 16 29 27 45 11 17 25 41 32 55 7 14 23 36 35
50 13 14 23 30 23 35 0 6 16 26 35 45 19 19 35 39 35 44 0 4 18 26 40 47 22
22 40 42 40 47 0 4 8 15 18 24 9 8 39 40 65 71 26 30 67 68 90 83 23 16 51 39
63 52 12 12 26 22 33 22 6 0 11 5 11 10 0 6 12 16 28 23 15 6 38 22 52 35 14
12 35 25 47 28 12 3 24 12 27 20 3 8 12 14 20 14 7 0 16 7 20 15 3 8 12 15 19
15 8 0 39 14 70 30 31 17 63 30 71 30 7 0 19 7 26 15 7 8 22 15 34 15 11 0 30
7 40 15 11 8 30 15 42 15 12 0 24 7 28 15 3 9 18 15 39 15 19 0 40 7 47 15 7
8 25 15 41 15 15 0 31 5 34 10 4 6 24 19 46 30 21 11 39 27 39 35 0 9 12 20
28 25 33 12 74 34 127 69 22 15 56 33 75 40 19 8 73 32 120 54 47 22 110 49
140 59 30 11 93 34 140 51 47 16 103 33 125 37 22 4 83 19 135 33 52 13 154
32 227 42 150 19 460 27 576 14 183 -21 235 -29 282 -43 28 -8 86 -22 130 -31
44 -10 89 -24 100 -31 11 -8 29 -14 41 -14 12 0 35 -7 50 -15 16 -8 38 -15 49
-15 38 0 65 -12 65 -29 0 -11 15 -21 48 -31 26 -7 62 -22 81 -32 18 -10 38
-17 45 -14 7 3 7 5 -1 5 -7 1 -13 8 -13 16 0 8 -4 15 -10 15 -5 0 -18 8 -28
18 -10 9 -42 37 -71 62 -29 25 -59 50 -65 56 -7 6 -25 18 -42 27 -16 8 -38 24
-48 36 -11 12 -25 21 -33 21 -7 0 -13 5 -13 10 0 6 -6 10 -13 10 -8 0 -22 9
-32 20 -10 11 -24 20 -30 20 -7 0 -15 7 -19 15 -3 8 -12 15 -20 15 -19 0 -79
32 -89 48 -4 6 -19 12 -31 12 -13 0 -26 7 -30 15 -3 8 -16 15 -30 15 -13 0
-26 7 -30 15 -3 8 -17 15 -31 15 -14 0 -28 7 -31 15 -4 8 -18 15 -34 15 -15 0
-33 7 -40 15 -7 8 -25 15 -39 15 -15 0 -36 7 -47 15 -10 8 -32 15 -47 15 -15
0 -30 7 -33 15 -4 10 -20 15 -49 15 -26 0 -47 6 -55 15 -8 9 -30 15 -59 15
-26 0 -56 7 -67 15 -11 8 -42 15 -74 15 -30 0 -67 6 -82 14 -29 15 -414 27
-637 19z"/>
<path d="M7133 10003 c15 -2 37 -2 50 0 12 2 0 4 -28 4 -27 0 -38 -2 -22 -4z"/>
<path d="M3998 9123 c6 -2 18 -2 25 0 6 3 1 5 -13 5 -14 0 -19 -2 -12 -5z"/>
<path d="M5310 9100 c0 -5 5 -10 10 -10 6 0 10 5 10 10 0 6 -4 10 -10 10 -5 0
-10 -4 -10 -10z"/>
<path d="M4118 9093 c6 -2 18 -2 25 0 6 3 1 5 -13 5 -14 0 -19 -2 -12 -5z"/>
<path d="M4250 9070 c0 -5 7 -10 16 -10 8 0 12 5 9 10 -3 6 -10 10 -16 10 -5
0 -9 -4 -9 -10z"/>
<path d="M8690 4930 c0 -5 7 -10 15 -10 8 0 15 5 15 10 0 6 -7 10 -15 10 -8 0
-15 -4 -15 -10z"/>
<path d="M7184 1517 c-91 -21 -165 -80 -207 -166 -17 -34 -51 -236 -43 -250 3
-4 10 -38 16 -75 12 -79 36 -131 77 -166 78 -69 115 -82 243 -83 91 0 142 11
195 45 49 31 72 57 115 128 l33 55 -1 155 c-1 163 -3 173 -56 252 -27 41 -107
95 -152 102 -83 13 -171 14 -220 3z m190 -110 c22 -12 53 -39 69 -59 l30 -37
0 -150 c1 -146 0 -150 -26 -190 -41 -62 -100 -96 -168 -96 -31 0 -69 7 -85 15
-44 21 -94 71 -94 93 0 10 -7 34 -16 52 -20 42 -15 201 8 260 18 45 60 92 103
117 45 25 131 23 179 -5z"/>
<path d="M7980 1515 c-30 -7 -69 -20 -86 -29 -39 -20 -124 -110 -124 -131 0
-8 -4 -23 -9 -33 -18 -35 -43 -170 -38 -203 18 -105 29 -155 38 -163 5 -6 9
-18 9 -28 0 -26 62 -90 112 -114 114 -57 242 -57 356 0 65 32 97 65 134 136
l32 65 0 150 c-1 144 -2 152 -28 200 -34 62 -50 79 -102 115 -61 41 -200 58
-294 35z m195 -111 c25 -14 55 -42 67 -62 21 -34 23 -48 23 -187 0 -133 -2
-153 -20 -180 -44 -66 -90 -95 -160 -102 -64 -7 -132 22 -171 75 -52 68 -68
198 -38 315 18 70 31 91 93 135 59 43 140 45 206 6z"/>
<path d="M3222 1153 l3 -358 39 -3 c22 -2 50 -1 63 2 23 6 23 8 23 150 0 183
-6 176 156 176 80 0 124 -4 132 -12 8 -8 12 -58 12 -159 0 -166 -3 -159 81
-159 l49 0 0 35 c1 19 1 71 1 115 0 44 0 190 -1 325 l0 245 -54 0 c-33 0 -58
-5 -63 -12 -4 -7 -9 -69 -10 -137 -2 -74 -7 -129 -14 -137 -16 -19 -264 -20
-276 -1 -4 6 -10 73 -13 147 l-5 135 -63 3 -62 3 2 -358z"/>
<path d="M4148 1472 c-10 -21 -18 -46 -18 -55 0 -9 -6 -31 -14 -49 -23 -54
-63 -165 -76 -213 -17 -59 -62 -190 -71 -205 -5 -8 -11 -19 -12 -25 -28 -83
-37 -117 -32 -125 3 -6 28 -10 55 -10 52 0 79 22 81 65 0 11 10 38 22 60 l22
40 143 3 142 3 11 -28 c6 -16 15 -36 20 -45 5 -10 9 -30 9 -45 0 -48 11 -54
81 -51 75 4 81 13 50 82 -12 25 -21 52 -21 60 0 8 -4 17 -9 21 -6 3 -13 26
-17 50 -3 25 -10 47 -14 50 -5 3 -18 38 -30 78 -12 39 -27 83 -34 97 -7 14
-21 52 -31 85 -10 33 -30 89 -45 125 l-26 65 -85 3 -84 2 -17 -38z m110 -118
c12 -8 22 -25 22 -37 1 -12 7 -33 15 -47 8 -14 14 -36 15 -50 0 -14 6 -35 14
-46 22 -31 30 -92 16 -109 -15 -17 -159 -21 -189 -5 -17 9 -17 14 -6 62 15 64
43 149 54 163 5 5 11 27 15 48 8 41 12 44 44 21z"/>
<path d="M4722 1471 c-8 -25 -12 -144 -12 -354 l0 -317 23 -5 c13 -4 43 -5 67
-3 l43 3 1 118 c1 93 4 120 16 127 8 6 20 8 27 5 19 -7 165 26 205 46 89 45
130 165 97 284 -12 41 -67 105 -91 105 -8 0 -23 7 -34 15 -15 11 -54 14 -175
15 l-156 0 -11 -39z m268 -60 c23 -10 51 -32 61 -47 36 -54 17 -157 -34 -195
-13 -9 -51 -18 -90 -21 -61 -5 -69 -4 -78 15 -12 22 -8 234 5 255 11 18 88 14
136 -7z"/>
<path d="M5361 1473 c-6 -22 -10 -174 -10 -355 l0 -318 23 -6 c12 -3 42 -4 67
-2 l44 3 3 118 c3 136 -5 127 124 146 131 20 192 64 218 156 17 63 17 98 -1
159 -14 47 -67 106 -95 106 -6 0 -17 7 -24 15 -10 12 -43 15 -176 15 l-163 0
-10 -37z m272 -62 c53 -25 77 -64 77 -127 0 -45 -5 -57 -36 -93 l-36 -41 -74
0 -74 0 0 124 c0 68 3 131 6 140 9 22 88 20 137 -3z"/>
<path d="M5990 1150 l0 -360 65 0 64 0 3 328 c2 180 1 342 -1 360 l-3 32 -64
0 -64 0 0 -360z"/>
<path d="M6300 1473 c-7 -25 -10 -148 -8 -358 l3 -320 65 0 65 0 3 143 c2 140
3 143 27 154 54 24 112 -7 150 -82 10 -19 24 -47 31 -62 8 -14 14 -34 14 -43
0 -9 7 -31 16 -48 9 -18 20 -39 24 -47 5 -10 26 -16 69 -18 59 -3 61 -2 61 22
0 26 -4 37 -59 159 -17 37 -31 70 -31 73 0 3 -13 17 -30 32 -35 33 -32 60 10
84 78 45 107 176 55 258 -16 25 -42 48 -76 64 -48 25 -59 26 -214 26 l-164 0
-11 -37z m293 -63 c50 -22 59 -38 60 -111 1 -74 -51 -119 -138 -119 -81 0 -85
6 -85 123 0 67 4 107 12 115 19 19 101 14 151 -8z"/>
</g>
</svg>
